<?xml version="1.0" encoding="UTF-8" standalone="no"?>
<!DOCTYPE svg PUBLIC "-//W3C//DTD SVG 1.1//EN"
 "http://www.w3.org/Graphics/SVG/1.1/DTD/svg11.dtd">
<!-- Generated by graphviz version 2.43.0 (0)
 -->
<!-- Title: App::Models::Student::StudentProfessor Pages: 1 -->
<svg width="143pt" height="313pt"
 viewBox="0.00 0.00 143.00 313.00" xmlns="http://www.w3.org/2000/svg" xmlns:xlink="http://www.w3.org/1999/xlink">

<svg id="main" version="1.1" xmlns="http://www.w3.org/2000/svg" xmlns:xlink="http://www.w3.org/1999/xlink" xml:space="preserve" onload="init(evt)">
<style type="text/css"><![CDATA[
.node, .edge {opacity: 0.7;}
.node.selected, .edge.selected {opacity: 1;}
.edge:hover path { stroke: red; }
.edge:hover polygon { stroke: red; fill: red; }
]]></style>
<script type="application/ecmascript" xlink:href="svg.min.js"/>
<svg id="graph" class="graph">
<g id="graph0" class="graph" transform="scale(1 1) rotate(0) translate(4 309)">
<title>App::Models::Student::StudentProfessor</title>
<!-- Node1 -->
<g id="Node000001" class="node">
<title>Node1</title>
<g id="a_Node000001"><a xlink:title="Extended model that restricts professor lookups to the student connection so learners interact only w...">
<polygon fill="#999999" stroke="transparent" points="135,-75 0,-75 0,0 135,0 135,-75"/>
<text text-anchor="start" x="16" y="-62.5" font-family="Helvetica,sans-Serif" font-size="10.00">App::Models::Student</text>
<text text-anchor="start" x="23" y="-51.5" font-family="Helvetica,sans-Serif" font-size="10.00">::StudentProfessor</text>
<text text-anchor="start" x="4.5" y="-36.5" font-family="Helvetica,sans-Serif" font-size="10.00">#</text>
<text text-anchor="start" x="17.5" y="-36.5" font-family="Helvetica,sans-Serif" font-size="10.00">$connection</text>
<text text-anchor="start" x="4.5" y="-21.5" font-family="Helvetica,sans-Serif" font-size="10.00">#</text>
<text text-anchor="start" x="17.5" y="-21.5" font-family="Helvetica,sans-Serif" font-size="10.00">$table</text>
<text text-anchor="start" x="4.5" y="-6.5" font-family="Helvetica,sans-Serif" font-size="10.00">#</text>
<text text-anchor="start" x="17.5" y="-6.5" font-family="Helvetica,sans-Serif" font-size="10.00">getProjectModelClass()</text>
<polygon fill="#666666" stroke="#666666" points="0.5,-46.5 0.5,-46.5 135.5,-46.5 135.5,-46.5 0.5,-46.5"/>
<polygon fill="#666666" stroke="#666666" points="0.5,-16.5 0.5,-16.5 15.5,-16.5 15.5,-16.5 0.5,-16.5"/>
<polygon fill="#666666" stroke="#666666" points="15.5,-16.5 15.5,-16.5 135.5,-16.5 135.5,-16.5 15.5,-16.5"/>
<polygon fill="none" stroke="#666666" points="0,0 0,-75 135,-75 135,0 0,0"/>
</a>
</g>
</g>
<!-- Node2 -->
<g id="Node000002" class="node">
<title>Node2</title>
<g id="a_Node000002"><a xlink:href="classApp_1_1Models_1_1Professor.html" target="_top" xlink:title="professors table model, manages communication with the database using the root user,...">
<polygon fill="white" stroke="transparent" points="135,-220 0,-220 0,-111 135,-111 135,-220"/>
<text text-anchor="start" x="12" y="-207.5" font-family="Helvetica,sans-Serif" font-size="10.00">App::Models::Professor</text>
<text text-anchor="start" x="4.5" y="-192.5" font-family="Helvetica,sans-Serif" font-size="10.00">#</text>
<text text-anchor="start" x="17.5" y="-192.5" font-family="Helvetica,sans-Serif" font-size="10.00">$fillable</text>
<text text-anchor="start" x="4.5" y="-177.5" font-family="Helvetica,sans-Serif" font-size="10.00">+</text>
<text text-anchor="start" x="17.5" y="-177.5" font-family="Helvetica,sans-Serif" font-size="10.00">cityProgram()</text>
<text text-anchor="start" x="4.5" y="-162.5" font-family="Helvetica,sans-Serif" font-size="10.00">+</text>
<text text-anchor="start" x="17.5" y="-162.5" font-family="Helvetica,sans-Serif" font-size="10.00">postulationToReview()</text>
<text text-anchor="start" x="4.5" y="-147.5" font-family="Helvetica,sans-Serif" font-size="10.00">+</text>
<text text-anchor="start" x="17.5" y="-147.5" font-family="Helvetica,sans-Serif" font-size="10.00">projects()</text>
<text text-anchor="start" x="4.5" y="-132.5" font-family="Helvetica,sans-Serif" font-size="10.00">+</text>
<text text-anchor="start" x="17.5" y="-132.5" font-family="Helvetica,sans-Serif" font-size="10.00">user()</text>
<text text-anchor="start" x="4.5" y="-117.5" font-family="Helvetica,sans-Serif" font-size="10.00">#</text>
<text text-anchor="start" x="17.5" y="-117.5" font-family="Helvetica,sans-Serif" font-size="10.00">getProjectModelClass()</text>
<polygon fill="#666666" stroke="#666666" points="0.5,-202.5 0.5,-202.5 135.5,-202.5 135.5,-202.5 0.5,-202.5"/>
<polygon fill="#666666" stroke="#666666" points="0.5,-187.5 0.5,-187.5 15.5,-187.5 15.5,-187.5 0.5,-187.5"/>
<polygon fill="#666666" stroke="#666666" points="15.5,-187.5 15.5,-187.5 135.5,-187.5 135.5,-187.5 15.5,-187.5"/>
<polygon fill="none" stroke="#666666" points="0,-111 0,-220 135,-220 135,-111 0,-111"/>
</a>
</g>
</g>
<!-- Node2&#45;&gt;Node1 -->
<g id="edge1_Node000001_Node000002" class="edge">
<title>Node2&#45;&gt;Node1</title>
<g id="a_edge1_Node000001_Node000002"><a xlink:title=" ">
<path fill="none" stroke="#63b8ff" d="M67.5,-100.47C67.5,-91.74 67.5,-83.03 67.5,-75.02"/>
<polygon fill="none" stroke="#63b8ff" points="64,-100.7 67.5,-110.7 71,-100.7 64,-100.7"/>
</a>
</g>
</g>
<!-- Node3 -->
<g id="Node000003" class="node">
<title>Node3</title>
<g id="a_Node000003"><a xlink:title=" ">
<polygon fill="white" stroke="transparent" points="88,-305 47,-305 47,-256 88,-256 88,-305"/>
<text text-anchor="start" x="52.5" y="-292.5" font-family="Helvetica,sans-Serif" font-size="10.00">Model</text>
<text text-anchor="start" x="66" y="-277.5" font-family="Helvetica,sans-Serif" font-size="10.00"> </text>
<text text-anchor="start" x="66" y="-262.5" font-family="Helvetica,sans-Serif" font-size="10.00"> </text>
<polygon fill="#666666" stroke="#666666" points="47.5,-287.5 47.5,-287.5 88.5,-287.5 88.5,-287.5 47.5,-287.5"/>
<polygon fill="#666666" stroke="#666666" points="47.5,-272.5 47.5,-272.5 88.5,-272.5 88.5,-272.5 47.5,-272.5"/>
<polygon fill="none" stroke="#666666" points="47,-256 47,-305 88,-305 88,-256 47,-256"/>
</a>
</g>
</g>
<!-- Node3&#45;&gt;Node2 -->
<g id="edge2_Node000002_Node000003" class="edge">
<title>Node3&#45;&gt;Node2</title>
<g id="a_edge2_Node000002_Node000003"><a xlink:title=" ">
<path fill="none" stroke="#63b8ff" d="M67.5,-245.79C67.5,-237.79 67.5,-229.06 67.5,-220.41"/>
<polygon fill="none" stroke="#63b8ff" points="64,-245.81 67.5,-255.81 71,-245.81 64,-245.81"/>
</a>
</g>
</g>
</g>
</svg>
</svg>

<style type='text/css'>
<![CDATA[
[data-mouse-over-selected='false'] { opacity: 0.7; }
[data-mouse-over-selected='true']  { opacity: 1.0; }
]]>
</style>
<script type="application/ecmascript"><![CDATA[
document.addEventListener('DOMContentLoaded', (event) => {
  highlightEdges();
  highlightAdjacentNodes();
});
]]></script>
</svg>
