<?xml version="1.0" encoding="UTF-8" standalone="no"?>
<!DOCTYPE svg PUBLIC "-//W3C//DTD SVG 1.1//EN"
 "http://www.w3.org/Graphics/SVG/1.1/DTD/svg11.dtd">
<!-- Generated by graphviz version 2.43.0 (0)
 -->
<!-- Title: App::Models::Professor::user Pages: 1 -->
<svg width="548pt" height="248pt"
 viewBox="0.00 0.00 548.00 247.50" xmlns="http://www.w3.org/2000/svg" xmlns:xlink="http://www.w3.org/1999/xlink">
<g id="graph0" class="graph" transform="scale(1 1) rotate(0) translate(4 243.5)">
<title>App::Models::Professor::user</title>
<!-- Node1 -->
<g id="Node000001" class="node">
<title>Node1</title>
<g id="a_Node000001"><a xlink:title="Get the user associated with the professor.">
<polygon fill="#999999" stroke="#666666" points="540,-145 412,-145 412,-115 540,-115 540,-145"/>
<text text-anchor="start" x="420" y="-133" font-family="Helvetica,sans-Serif" font-size="10.00">App::Models::Professor</text>
<text text-anchor="middle" x="476" y="-122" font-family="Helvetica,sans-Serif" font-size="10.00">::user</text>
</a>
</g>
</g>
<!-- Node2 -->
<g id="Node000002" class="node">
<title>Node2</title>
<g id="a_Node000002"><a xlink:href="classApp_1_1Http_1_1Controllers_1_1ProjectController.html#a8eca93212c12c16305928089124a9a7f" target="_top" xlink:title="Build a portable snapshot so each version preserves the project state of that moment.">
<polygon fill="white" stroke="#666666" points="376,-239.5 208,-239.5 208,-198.5 376,-198.5 376,-239.5"/>
<text text-anchor="start" x="216" y="-227.5" font-family="Helvetica,sans-Serif" font-size="10.00">App::Http::Controllers</text>
<text text-anchor="start" x="216" y="-216.5" font-family="Helvetica,sans-Serif" font-size="10.00">::ProjectController::buildProject</text>
<text text-anchor="middle" x="292" y="-205.5" font-family="Helvetica,sans-Serif" font-size="10.00">VersionSnapshot</text>
</a>
</g>
</g>
<!-- Node1&#45;&gt;Node2 -->
<g id="edge1_Node000001_Node000002" class="edge">
<title>Node1&#45;&gt;Node2</title>
<g id="a_edge1_Node000001_Node000002"><a xlink:title=" ">
<path fill="none" stroke="#63b8ff" d="M444.37,-150.85C425.26,-163.27 399.85,-178.76 376,-190 369.79,-192.93 363.19,-195.72 356.55,-198.34"/>
<polygon fill="#63b8ff" stroke="#63b8ff" points="446.51,-153.63 452.94,-145.21 442.66,-147.79 446.51,-153.63"/>
</a>
</g>
</g>
<!-- Node3 -->
<g id="Node000003" class="node">
<title>Node3</title>
<g id="a_Node000003"><a xlink:href="classApp_1_1Services_1_1Projects_1_1ProjectParticipantService.html#a245485e0b2d9d869ef6f0524df0513c4" target="_top" xlink:title="Converts a professor model into the shape expected by the UI widgets.">
<polygon fill="white" stroke="#666666" points="364,-180.5 220,-180.5 220,-139.5 364,-139.5 364,-180.5"/>
<text text-anchor="start" x="228" y="-168.5" font-family="Helvetica,sans-Serif" font-size="10.00">App::Services::Projects</text>
<text text-anchor="start" x="228" y="-157.5" font-family="Helvetica,sans-Serif" font-size="10.00">::ProjectParticipantService</text>
<text text-anchor="middle" x="292" y="-146.5" font-family="Helvetica,sans-Serif" font-size="10.00">::present</text>
</a>
</g>
</g>
<!-- Node1&#45;&gt;Node3 -->
<g id="edge2_Node000001_Node000003" class="edge">
<title>Node1&#45;&gt;Node3</title>
<g id="a_edge2_Node000001_Node000003"><a xlink:title=" ">
<path fill="none" stroke="#63b8ff" d="M401.97,-142.04C389.5,-144.09 376.56,-146.23 364.13,-148.27"/>
<polygon fill="#63b8ff" stroke="#63b8ff" points="402.56,-145.49 411.86,-140.41 401.42,-138.58 402.56,-145.49"/>
</a>
</g>
</g>
<!-- Node4 -->
<g id="Node000004" class="node">
<title>Node4</title>
<g id="a_Node000004"><a xlink:href="classApp_1_1Http_1_1Controllers_1_1ProjectController.html#a6b7ca729894d4a38d890c8a007c862c2" target="_top" xlink:title="Normalize the participant payload so the Blade and JS layers consume the same shape.">
<polygon fill="white" stroke="#666666" points="365.5,-121.5 218.5,-121.5 218.5,-80.5 365.5,-80.5 365.5,-121.5"/>
<text text-anchor="start" x="226.5" y="-109.5" font-family="Helvetica,sans-Serif" font-size="10.00">App::Http::Controllers</text>
<text text-anchor="start" x="226.5" y="-98.5" font-family="Helvetica,sans-Serif" font-size="10.00">::ProjectController::present</text>
<text text-anchor="middle" x="292" y="-87.5" font-family="Helvetica,sans-Serif" font-size="10.00">Participant</text>
</a>
</g>
</g>
<!-- Node1&#45;&gt;Node4 -->
<g id="edge3_Node000001_Node000004" class="edge">
<title>Node1&#45;&gt;Node4</title>
<g id="a_edge3_Node000001_Node000004"><a xlink:title=" ">
<path fill="none" stroke="#63b8ff" d="M401.95,-118.36C390.01,-116.46 377.64,-114.49 365.71,-112.59"/>
<polygon fill="#63b8ff" stroke="#63b8ff" points="401.43,-121.82 411.86,-119.94 402.53,-114.91 401.43,-121.82"/>
</a>
</g>
</g>
<!-- Node5 -->
<g id="Node000005" class="node">
<title>Node5</title>
<g id="a_Node000005"><a xlink:href="classApp_1_1Http_1_1Controllers_1_1ProjectVersionController.html#a66279c21a7515cf7b7e7227dc4bcaa2b" target="_top" xlink:title="Build a compatible snapshot for legacy and new versions.">
<polygon fill="white" stroke="#666666" points="362,-62.5 222,-62.5 222,-21.5 362,-21.5 362,-62.5"/>
<text text-anchor="start" x="230" y="-50.5" font-family="Helvetica,sans-Serif" font-size="10.00">App::Http::Controllers</text>
<text text-anchor="start" x="230" y="-39.5" font-family="Helvetica,sans-Serif" font-size="10.00">::ProjectVersionController</text>
<text text-anchor="middle" x="292" y="-28.5" font-family="Helvetica,sans-Serif" font-size="10.00">::resolveSnapshot</text>
</a>
</g>
</g>
<!-- Node1&#45;&gt;Node5 -->
<g id="edge4_Node000001_Node000005" class="edge">
<title>Node1&#45;&gt;Node5</title>
<g id="a_edge4_Node000001_Node000005"><a xlink:title=" ">
<path fill="none" stroke="#63b8ff" d="M443.48,-109.53C424.41,-97.66 399.36,-82.95 376,-72 368.92,-68.68 361.37,-65.5 353.82,-62.52"/>
<polygon fill="#63b8ff" stroke="#63b8ff" points="441.72,-112.56 452.05,-114.93 445.45,-106.64 441.72,-112.56"/>
</a>
</g>
</g>
<!-- Node6 -->
<g id="Node000006" class="node">
<title>Node6</title>
<g id="a_Node000006"><a xlink:href="classApp_1_1Http_1_1Controllers_1_1ProjectVersionController.html#a2389d8b616d87db11847ca38eb91109b" target="_top" xlink:title="Display the version history associated with the project.">
<polygon fill="white" stroke="#666666" points="156,-89.5 16,-89.5 16,-48.5 156,-48.5 156,-89.5"/>
<text text-anchor="start" x="24" y="-77.5" font-family="Helvetica,sans-Serif" font-size="10.00">App::Http::Controllers</text>
<text text-anchor="start" x="24" y="-66.5" font-family="Helvetica,sans-Serif" font-size="10.00">::ProjectVersionController</text>
<text text-anchor="middle" x="86" y="-55.5" font-family="Helvetica,sans-Serif" font-size="10.00">::index</text>
</a>
</g>
</g>
<!-- Node5&#45;&gt;Node6 -->
<g id="edge5_Node000005_Node000006" class="edge">
<title>Node5&#45;&gt;Node6</title>
<g id="a_edge5_Node000005_Node000006"><a xlink:title=" ">
<path fill="none" stroke="#63b8ff" d="M211.88,-52.47C193.56,-54.9 174.2,-57.46 156.34,-59.82"/>
<polygon fill="#63b8ff" stroke="#63b8ff" points="212.48,-55.92 221.93,-51.14 211.56,-48.98 212.48,-55.92"/>
</a>
</g>
</g>
<!-- Node7 -->
<g id="Node000007" class="node">
<title>Node7</title>
<g id="a_Node000007"><a xlink:href="classApp_1_1Http_1_1Controllers_1_1ProjectVersionController.html#a2cfada4301b68a0a74ecc8723a363bc7" target="_top" xlink:title="Show the full snapshot of a project version.">
<polygon fill="white" stroke="#666666" points="172,-30 0,-30 0,0 172,0 172,-30"/>
<text text-anchor="start" x="8" y="-18" font-family="Helvetica,sans-Serif" font-size="10.00">App::Http::Controllers</text>
<text text-anchor="middle" x="86" y="-7" font-family="Helvetica,sans-Serif" font-size="10.00">::ProjectVersionController::show</text>
</a>
</g>
</g>
<!-- Node5&#45;&gt;Node7 -->
<g id="edge6_Node000005_Node000007" class="edge">
<title>Node5&#45;&gt;Node7</title>
<g id="a_edge6_Node000005_Node000007"><a xlink:title=" ">
<path fill="none" stroke="#63b8ff" d="M211.7,-31.5C198.77,-29.79 185.34,-28.02 172.28,-26.29"/>
<polygon fill="#63b8ff" stroke="#63b8ff" points="211.56,-35.02 221.93,-32.86 212.48,-28.08 211.56,-35.02"/>
</a>
</g>
</g>
</g>
</svg>
