<?xml version="1.0" encoding="UTF-8" standalone="no"?>
<!DOCTYPE svg PUBLIC "-//W3C//DTD SVG 1.1//EN"
 "http://www.w3.org/Graphics/SVG/1.1/DTD/svg11.dtd">
<!-- Generated by graphviz version 2.43.0 (0)
 -->
<!-- Title: App::Models::InvestigationLine Pages: 1 -->
<svg width="169pt" height="209pt"
 viewBox="0.00 0.00 169.00 209.00" xmlns="http://www.w3.org/2000/svg" xmlns:xlink="http://www.w3.org/1999/xlink">

<svg id="main" version="1.1" xmlns="http://www.w3.org/2000/svg" xmlns:xlink="http://www.w3.org/1999/xlink" xml:space="preserve" onload="init(evt)">
<style type="text/css"><![CDATA[
.node, .edge {opacity: 0.7;}
.node.selected, .edge.selected {opacity: 1;}
.edge:hover path { stroke: red; }
.edge:hover polygon { stroke: red; fill: red; }
]]></style>
<script type="application/ecmascript" xlink:href="svg.min.js"/>
<svg id="graph" class="graph">
<g id="graph0" class="graph" transform="scale(1 1) rotate(0) translate(4 205)">
<title>App::Models::InvestigationLine</title>
<!-- Node1 -->
<g id="Node000001" class="node">
<title>Node1</title>
<g id="a_Node000001"><a xlink:title="investigation_lines table model, manages communication with the database using the root user,...">
<polygon fill="#999999" stroke="transparent" points="161,-116 0,-116 0,0 161,0 161,-116"/>
<text text-anchor="start" x="5.5" y="-104" font-family="Helvetica,sans-Serif" font-size="10.00">App::Models::InvestigationLine</text>
<text text-anchor="start" x="11" y="-89" font-family="Helvetica,sans-Serif" font-size="10.00">#</text>
<text text-anchor="start" x="30.5" y="-89" font-family="Helvetica,sans-Serif" font-size="10.00">$fillable</text>
<text text-anchor="start" x="11" y="-74" font-family="Helvetica,sans-Serif" font-size="10.00">+</text>
<text text-anchor="start" x="30.5" y="-74" font-family="Helvetica,sans-Serif" font-size="10.00">researchGroup()</text>
<text text-anchor="start" x="11" y="-59" font-family="Helvetica,sans-Serif" font-size="10.00">+</text>
<text text-anchor="start" x="30.5" y="-59" font-family="Helvetica,sans-Serif" font-size="10.00">setDescriptionAttribute</text>
<text text-anchor="start" x="30.5" y="-48" font-family="Helvetica,sans-Serif" font-size="10.00">($value)</text>
<text text-anchor="start" x="11" y="-33" font-family="Helvetica,sans-Serif" font-size="10.00">+</text>
<text text-anchor="start" x="30.5" y="-33" font-family="Helvetica,sans-Serif" font-size="10.00">setNameAttribute(</text>
<text text-anchor="start" x="30.5" y="-22" font-family="Helvetica,sans-Serif" font-size="10.00">$value)</text>
<text text-anchor="start" x="11" y="-7" font-family="Helvetica,sans-Serif" font-size="10.00">+</text>
<text text-anchor="start" x="30.5" y="-7" font-family="Helvetica,sans-Serif" font-size="10.00">thematicAreas()</text>
<polygon fill="#666666" stroke="#666666" points="0.5,-99 0.5,-99 161.5,-99 161.5,-99 0.5,-99"/>
<polygon fill="#666666" stroke="#666666" points="0.5,-84 0.5,-84 28.5,-84 28.5,-84 0.5,-84"/>
<polygon fill="#666666" stroke="#666666" points="28.5,-84 28.5,-84 161.5,-84 161.5,-84 28.5,-84"/>
<polygon fill="none" stroke="#666666" points="0,0 0,-116 161,-116 161,0 0,0"/>
</a>
</g>
</g>
<!-- Node2 -->
<g id="Node000002" class="node">
<title>Node2</title>
<g id="a_Node000002"><a xlink:title=" ">
<polygon fill="white" stroke="transparent" points="101,-201 60,-201 60,-152 101,-152 101,-201"/>
<text text-anchor="start" x="65.5" y="-188.5" font-family="Helvetica,sans-Serif" font-size="10.00">Model</text>
<text text-anchor="start" x="79" y="-173.5" font-family="Helvetica,sans-Serif" font-size="10.00"> </text>
<text text-anchor="start" x="79" y="-158.5" font-family="Helvetica,sans-Serif" font-size="10.00"> </text>
<polygon fill="#666666" stroke="#666666" points="60.5,-183.5 60.5,-183.5 101.5,-183.5 101.5,-183.5 60.5,-183.5"/>
<polygon fill="#666666" stroke="#666666" points="60.5,-168.5 60.5,-168.5 101.5,-168.5 101.5,-168.5 60.5,-168.5"/>
<polygon fill="none" stroke="#666666" points="60,-152 60,-201 101,-201 101,-152 60,-152"/>
</a>
</g>
</g>
<!-- Node2&#45;&gt;Node1 -->
<g id="edge1_Node000001_Node000002" class="edge">
<title>Node2&#45;&gt;Node1</title>
<g id="a_edge1_Node000001_Node000002"><a xlink:title=" ">
<path fill="none" stroke="#63b8ff" d="M80.5,-141.87C80.5,-133.83 80.5,-125.03 80.5,-116.26"/>
<polygon fill="none" stroke="#63b8ff" points="77,-141.92 80.5,-151.92 84,-141.92 77,-141.92"/>
</a>
</g>
</g>
</g>
</svg>
</svg>

<style type='text/css'>
<![CDATA[
[data-mouse-over-selected='false'] { opacity: 0.7; }
[data-mouse-over-selected='true']  { opacity: 1.0; }
]]>
</style>
<script type="application/ecmascript"><![CDATA[
document.addEventListener('DOMContentLoaded', (event) => {
  highlightEdges();
  highlightAdjacentNodes();
});
]]></script>
</svg>
