<?xml version="1.0" encoding="UTF-8" standalone="no"?>
<!DOCTYPE svg PUBLIC "-//W3C//DTD SVG 1.1//EN"
 "http://www.w3.org/Graphics/SVG/1.1/DTD/svg11.dtd">
<!-- Generated by graphviz version 2.43.0 (0)
 -->
<!-- Title: App::Http::Controllers::Formats::FormatoRegistroController::exportPdf Pages: 1 -->
<svg width="618pt" height="98pt"
 viewBox="0.00 0.00 618.00 97.50" xmlns="http://www.w3.org/2000/svg" xmlns:xlink="http://www.w3.org/1999/xlink">
<g id="graph0" class="graph" transform="scale(1 1) rotate(0) translate(4 93.5)">
<title>App::Http::Controllers::Formats::FormatoRegistroController::exportPdf</title>
<!-- Node1 -->
<g id="Node000001" class="node">
<title>Node1</title>
<g id="a_Node000001"><a xlink:title=" ">
<polygon fill="#999999" stroke="#666666" points="197,-62.5 0,-62.5 0,-21.5 197,-21.5 197,-62.5"/>
<text text-anchor="start" x="8" y="-50.5" font-family="Helvetica,sans-Serif" font-size="10.00">App::Http::Controllers</text>
<text text-anchor="start" x="8" y="-39.5" font-family="Helvetica,sans-Serif" font-size="10.00">::Formats::FormatoRegistroController</text>
<text text-anchor="middle" x="98.5" y="-28.5" font-family="Helvetica,sans-Serif" font-size="10.00">::exportPdf</text>
</a>
</g>
</g>
<!-- Node2 -->
<g id="Node000002" class="node">
<title>Node2</title>
<g id="a_Node000002"><a xlink:href="classApp_1_1Http_1_1Controllers_1_1Formats_1_1FormatoRegistroController.html#a5f5fbe43f2776d358cf787c3ac65adf8" target="_top" xlink:title=" ">
<polygon fill="white" stroke="#666666" points="430,-89.5 233,-89.5 233,-48.5 430,-48.5 430,-89.5"/>
<text text-anchor="start" x="241" y="-77.5" font-family="Helvetica,sans-Serif" font-size="10.00">App::Http::Controllers</text>
<text text-anchor="start" x="241" y="-66.5" font-family="Helvetica,sans-Serif" font-size="10.00">::Formats::FormatoRegistroController</text>
<text text-anchor="middle" x="331.5" y="-55.5" font-family="Helvetica,sans-Serif" font-size="10.00">::checkAccess</text>
</a>
</g>
</g>
<!-- Node1&#45;&gt;Node2 -->
<g id="edge1_Node000001_Node000002" class="edge">
<title>Node1&#45;&gt;Node2</title>
<g id="a_edge1_Node000001_Node000002"><a xlink:title=" ">
<path fill="none" stroke="#63b8ff" d="M197.13,-53.41C205.63,-54.4 214.25,-55.41 222.83,-56.41"/>
<polygon fill="#63b8ff" stroke="#63b8ff" points="222.51,-59.9 232.85,-57.59 223.32,-52.95 222.51,-59.9"/>
</a>
</g>
</g>
<!-- Node4 -->
<g id="Node000004" class="node">
<title>Node4</title>
<g id="a_Node000004"><a xlink:href="classApp_1_1Models_1_1FormatoRegistro.html#a1fa8b56f3242abf80638d400f95c68c6" target="_top" xlink:title=" ">
<polygon fill="white" stroke="#666666" points="413.5,-30 249.5,-30 249.5,0 413.5,0 413.5,-30"/>
<text text-anchor="start" x="257.5" y="-18" font-family="Helvetica,sans-Serif" font-size="10.00">App::Models::FormatoRegistro</text>
<text text-anchor="middle" x="331.5" y="-7" font-family="Helvetica,sans-Serif" font-size="10.00">::valores</text>
</a>
</g>
</g>
<!-- Node1&#45;&gt;Node4 -->
<g id="edge3_Node000001_Node000004" class="edge">
<title>Node1&#45;&gt;Node4</title>
<g id="a_edge3_Node000001_Node000004"><a xlink:title=" ">
<path fill="none" stroke="#63b8ff" d="M197.13,-30.59C211.1,-28.96 225.43,-27.28 239.27,-25.66"/>
<polygon fill="#63b8ff" stroke="#63b8ff" points="239.73,-29.13 249.25,-24.5 238.91,-22.18 239.73,-29.13"/>
</a>
</g>
</g>
<!-- Node3 -->
<g id="Node000003" class="node">
<title>Node3</title>
<g id="a_Node000003"><a xlink:href="classApp_1_1Models_1_1FormatoTipo.html#aa7723012de64d5372a8fd844c2d69ee2" target="_top" xlink:title=" ">
<polygon fill="white" stroke="#666666" points="610,-84 466,-84 466,-54 610,-54 610,-84"/>
<text text-anchor="start" x="474" y="-72" font-family="Helvetica,sans-Serif" font-size="10.00">App::Models::FormatoTipo</text>
<text text-anchor="middle" x="538" y="-61" font-family="Helvetica,sans-Serif" font-size="10.00">::esAccesiblePor</text>
</a>
</g>
</g>
<!-- Node2&#45;&gt;Node3 -->
<g id="edge2_Node000002_Node000003" class="edge">
<title>Node2&#45;&gt;Node3</title>
<g id="a_edge2_Node000002_Node000003"><a xlink:title=" ">
<path fill="none" stroke="#63b8ff" d="M430.26,-69C438.8,-69 447.38,-69 455.77,-69"/>
<polygon fill="#63b8ff" stroke="#63b8ff" points="455.89,-72.5 465.89,-69 455.89,-65.5 455.89,-72.5"/>
</a>
</g>
</g>
</g>
</svg>
