<?xml version="1.0" encoding="UTF-8" standalone="no"?>
<!DOCTYPE svg PUBLIC "-//W3C//DTD SVG 1.1//EN"
 "http://www.w3.org/Graphics/SVG/1.1/DTD/svg11.dtd">
<!-- Generated by graphviz version 2.43.0 (0)
 -->
<!-- Title: App::Models::ResearchGroup Pages: 1 -->
<svg width="468pt" height="346pt"
 viewBox="0.00 0.00 467.50 346.00" xmlns="http://www.w3.org/2000/svg" xmlns:xlink="http://www.w3.org/1999/xlink">
<g id="graph0" class="graph" transform="scale(1 1) rotate(0) translate(4 342)">
<title>App::Models::ResearchGroup</title>
<!-- Node1 -->
<g id="Node000001" class="node">
<title>Node1</title>
<g id="a_Node000001"><a xlink:title="research_groups table model, manages communication with the database using the root user,...">
<polygon fill="#999999" stroke="transparent" points="310,-253 159,-253 159,-111 310,-111 310,-253"/>
<text text-anchor="start" x="164.5" y="-241" font-family="Helvetica,sans-Serif" font-size="10.00">App::Models::ResearchGroup</text>
<text text-anchor="start" x="167.5" y="-226" font-family="Helvetica,sans-Serif" font-size="10.00">#</text>
<text text-anchor="start" x="184.5" y="-226" font-family="Helvetica,sans-Serif" font-size="10.00">$fillable</text>
<text text-anchor="start" x="167.5" y="-211" font-family="Helvetica,sans-Serif" font-size="10.00">+</text>
<text text-anchor="start" x="184.5" y="-211" font-family="Helvetica,sans-Serif" font-size="10.00">investigationLines()</text>
<text text-anchor="start" x="167.5" y="-196" font-family="Helvetica,sans-Serif" font-size="10.00">+</text>
<text text-anchor="start" x="184.5" y="-196" font-family="Helvetica,sans-Serif" font-size="10.00">programs()</text>
<text text-anchor="start" x="167.5" y="-181" font-family="Helvetica,sans-Serif" font-size="10.00">+</text>
<text text-anchor="start" x="184.5" y="-181" font-family="Helvetica,sans-Serif" font-size="10.00">setDescriptionAttribute</text>
<text text-anchor="start" x="184.5" y="-170" font-family="Helvetica,sans-Serif" font-size="10.00">($value)</text>
<text text-anchor="start" x="167.5" y="-155" font-family="Helvetica,sans-Serif" font-size="10.00">+</text>
<text text-anchor="start" x="184.5" y="-155" font-family="Helvetica,sans-Serif" font-size="10.00">setInitialsAttribute</text>
<text text-anchor="start" x="184.5" y="-144" font-family="Helvetica,sans-Serif" font-size="10.00">($value)</text>
<text text-anchor="start" x="167.5" y="-129" font-family="Helvetica,sans-Serif" font-size="10.00">+</text>
<text text-anchor="start" x="184.5" y="-129" font-family="Helvetica,sans-Serif" font-size="10.00">setNameAttribute(</text>
<text text-anchor="start" x="184.5" y="-118" font-family="Helvetica,sans-Serif" font-size="10.00">$value)</text>
<polygon fill="#666666" stroke="#666666" points="159.5,-236 159.5,-236 310.5,-236 310.5,-236 159.5,-236"/>
<polygon fill="#666666" stroke="#666666" points="159.5,-221 159.5,-221 182.5,-221 182.5,-221 159.5,-221"/>
<polygon fill="#666666" stroke="#666666" points="182.5,-221 182.5,-221 310.5,-221 310.5,-221 182.5,-221"/>
<polygon fill="none" stroke="#666666" points="159,-111 159,-253 310,-253 310,-111 159,-111"/>
</a>
</g>
</g>
<!-- Node3 -->
<g id="Node000003" class="node">
<title>Node3</title>
<g id="a_Node000003"><a xlink:href="classApp_1_1Models_1_1Professor_1_1ProfessorResearchGroup.html" target="_top" xlink:title="Extended model that funnels research group queries through the professor connection to respect the pe...">
<polygon fill="white" stroke="transparent" points="137,-75 0,-75 0,0 137,0 137,-75"/>
<text text-anchor="start" x="5.5" y="-62.5" font-family="Helvetica,sans-Serif" font-size="10.00">App::Models::Professor</text>
<text text-anchor="start" x="5.5" y="-51.5" font-family="Helvetica,sans-Serif" font-size="10.00">::ProfessorResearchGroup</text>
<text text-anchor="start" x="18.5" y="-36.5" font-family="Helvetica,sans-Serif" font-size="10.00">#</text>
<text text-anchor="start" x="45.5" y="-36.5" font-family="Helvetica,sans-Serif" font-size="10.00">$connection</text>
<text text-anchor="start" x="18.5" y="-21.5" font-family="Helvetica,sans-Serif" font-size="10.00">#</text>
<text text-anchor="start" x="45.5" y="-21.5" font-family="Helvetica,sans-Serif" font-size="10.00">$table</text>
<text text-anchor="start" x="67" y="-6.5" font-family="Helvetica,sans-Serif" font-size="10.00"> </text>
<polygon fill="#666666" stroke="#666666" points="0.5,-46.5 0.5,-46.5 137.5,-46.5 137.5,-46.5 0.5,-46.5"/>
<polygon fill="#666666" stroke="#666666" points="0.5,-16.5 0.5,-16.5 43.5,-16.5 43.5,-16.5 0.5,-16.5"/>
<polygon fill="#666666" stroke="#666666" points="43.5,-16.5 43.5,-16.5 137.5,-16.5 137.5,-16.5 43.5,-16.5"/>
<polygon fill="none" stroke="#666666" points="0,0 0,-75 137,-75 137,0 0,0"/>
</a>
</g>
</g>
<!-- Node1&#45;&gt;Node3 -->
<g id="edge2_Node000001_Node000003" class="edge">
<title>Node1&#45;&gt;Node3</title>
<g id="a_edge2_Node000001_Node000003"><a xlink:title=" ">
<path fill="none" stroke="#63b8ff" d="M151.15,-109.45C137.4,-97.64 123.66,-85.85 111.44,-75.36"/>
<polygon fill="none" stroke="#63b8ff" points="148.92,-112.15 158.79,-116.01 153.48,-106.84 148.92,-112.15"/>
</a>
</g>
</g>
<!-- Node4 -->
<g id="Node000004" class="node">
<title>Node4</title>
<g id="a_Node000004"><a xlink:href="classApp_1_1Models_1_1ResearchStaff_1_1ResearchStaffResearchGroup.html" target="_top" xlink:title="Extended model that executes research group queries via the research staff connection to match the pe...">
<polygon fill="white" stroke="transparent" points="313.5,-75 155.5,-75 155.5,0 313.5,0 313.5,-75"/>
<text text-anchor="start" x="160.5" y="-62.5" font-family="Helvetica,sans-Serif" font-size="10.00">App::Models::ResearchStaff</text>
<text text-anchor="start" x="160.5" y="-51.5" font-family="Helvetica,sans-Serif" font-size="10.00">::ResearchStaffResearchGroup</text>
<text text-anchor="start" x="178.5" y="-36.5" font-family="Helvetica,sans-Serif" font-size="10.00">#</text>
<text text-anchor="start" x="210.5" y="-36.5" font-family="Helvetica,sans-Serif" font-size="10.00">$connection</text>
<text text-anchor="start" x="178.5" y="-21.5" font-family="Helvetica,sans-Serif" font-size="10.00">#</text>
<text text-anchor="start" x="210.5" y="-21.5" font-family="Helvetica,sans-Serif" font-size="10.00">$table</text>
<text text-anchor="start" x="232.5" y="-6.5" font-family="Helvetica,sans-Serif" font-size="10.00"> </text>
<polygon fill="#666666" stroke="#666666" points="155.5,-46.5 155.5,-46.5 313.5,-46.5 313.5,-46.5 155.5,-46.5"/>
<polygon fill="#666666" stroke="#666666" points="155.5,-16.5 155.5,-16.5 208.5,-16.5 208.5,-16.5 155.5,-16.5"/>
<polygon fill="#666666" stroke="#666666" points="208.5,-16.5 208.5,-16.5 313.5,-16.5 313.5,-16.5 208.5,-16.5"/>
<polygon fill="none" stroke="#666666" points="155.5,0 155.5,-75 313.5,-75 313.5,0 155.5,0"/>
</a>
</g>
</g>
<!-- Node1&#45;&gt;Node4 -->
<g id="edge3_Node000001_Node000004" class="edge">
<title>Node1&#45;&gt;Node4</title>
<g id="a_edge3_Node000001_Node000004"><a xlink:title=" ">
<path fill="none" stroke="#63b8ff" d="M234.5,-100.31C234.5,-91.61 234.5,-83.1 234.5,-75.32"/>
<polygon fill="none" stroke="#63b8ff" points="231,-100.58 234.5,-110.58 238,-100.58 231,-100.58"/>
</a>
</g>
</g>
<!-- Node5 -->
<g id="Node000005" class="node">
<title>Node5</title>
<g id="a_Node000005"><a xlink:href="classApp_1_1Models_1_1Student_1_1StudentResearchGroup.html" target="_top" xlink:title="Extended model that queries research groups through the student connection so learners stay within th...">
<polygon fill="white" stroke="transparent" points="459.5,-75 331.5,-75 331.5,0 459.5,0 459.5,-75"/>
<text text-anchor="start" x="336.5" y="-62.5" font-family="Helvetica,sans-Serif" font-size="10.00">App::Models::Student</text>
<text text-anchor="start" x="336.5" y="-51.5" font-family="Helvetica,sans-Serif" font-size="10.00">::StudentResearchGroup</text>
<text text-anchor="start" x="347" y="-36.5" font-family="Helvetica,sans-Serif" font-size="10.00">#</text>
<text text-anchor="start" x="371.5" y="-36.5" font-family="Helvetica,sans-Serif" font-size="10.00">$connection</text>
<text text-anchor="start" x="347" y="-21.5" font-family="Helvetica,sans-Serif" font-size="10.00">#</text>
<text text-anchor="start" x="371.5" y="-21.5" font-family="Helvetica,sans-Serif" font-size="10.00">$table</text>
<text text-anchor="start" x="393.5" y="-6.5" font-family="Helvetica,sans-Serif" font-size="10.00"> </text>
<polygon fill="#666666" stroke="#666666" points="331.5,-46.5 331.5,-46.5 459.5,-46.5 459.5,-46.5 331.5,-46.5"/>
<polygon fill="#666666" stroke="#666666" points="331.5,-16.5 331.5,-16.5 369.5,-16.5 369.5,-16.5 331.5,-16.5"/>
<polygon fill="#666666" stroke="#666666" points="369.5,-16.5 369.5,-16.5 459.5,-16.5 459.5,-16.5 369.5,-16.5"/>
<polygon fill="none" stroke="#666666" points="331.5,0 331.5,-75 459.5,-75 459.5,0 331.5,0"/>
</a>
</g>
</g>
<!-- Node1&#45;&gt;Node5 -->
<g id="edge4_Node000001_Node000005" class="edge">
<title>Node1&#45;&gt;Node5</title>
<g id="a_edge4_Node000001_Node000005"><a xlink:title=" ">
<path fill="none" stroke="#63b8ff" d="M318.03,-107.07C330.47,-96.06 342.81,-85.13 353.87,-75.35"/>
<polygon fill="none" stroke="#63b8ff" points="315.45,-104.67 310.29,-113.92 320.09,-109.92 315.45,-104.67"/>
</a>
</g>
</g>
<!-- Node2 -->
<g id="Node000002" class="node">
<title>Node2</title>
<g id="a_Node000002"><a xlink:title=" ">
<polygon fill="white" stroke="transparent" points="255,-338 214,-338 214,-289 255,-289 255,-338"/>
<text text-anchor="start" x="219.5" y="-325.5" font-family="Helvetica,sans-Serif" font-size="10.00">Model</text>
<text text-anchor="start" x="233" y="-310.5" font-family="Helvetica,sans-Serif" font-size="10.00"> </text>
<text text-anchor="start" x="233" y="-295.5" font-family="Helvetica,sans-Serif" font-size="10.00"> </text>
<polygon fill="#666666" stroke="#666666" points="214.5,-320.5 214.5,-320.5 255.5,-320.5 255.5,-320.5 214.5,-320.5"/>
<polygon fill="#666666" stroke="#666666" points="214.5,-305.5 214.5,-305.5 255.5,-305.5 255.5,-305.5 214.5,-305.5"/>
<polygon fill="none" stroke="#666666" points="214,-289 214,-338 255,-338 255,-289 214,-289"/>
</a>
</g>
</g>
<!-- Node2&#45;&gt;Node1 -->
<g id="edge1_Node000001_Node000002" class="edge">
<title>Node2&#45;&gt;Node1</title>
<g id="a_edge1_Node000001_Node000002"><a xlink:title=" ">
<path fill="none" stroke="#63b8ff" d="M234.5,-278.55C234.5,-270.66 234.5,-261.98 234.5,-253.16"/>
<polygon fill="none" stroke="#63b8ff" points="231,-278.75 234.5,-288.75 238,-278.75 231,-278.75"/>
</a>
</g>
</g>
</g>
</svg>
