<?xml version="1.0" encoding="UTF-8" standalone="no"?>
<!DOCTYPE svg PUBLIC "-//W3C//DTD SVG 1.1//EN"
 "http://www.w3.org/Graphics/SVG/1.1/DTD/svg11.dtd">
<!-- Generated by graphviz version 2.43.0 (0)
 -->
<!-- Title: App::Services::Students::StudentAcademicProgressService::loadStudentContext Pages: 1 -->
<!--zoomable 226 -->

<svg id="main" version="1.1" xmlns="http://www.w3.org/2000/svg" xmlns:xlink="http://www.w3.org/1999/xlink" xml:space="preserve" onload="init(evt)">
<style type="text/css"><![CDATA[
.node, .edge {opacity: 0.7;}
.node.selected, .edge.selected {opacity: 1;}
.edge:hover path { stroke: red; }
.edge:hover polygon { stroke: red; fill: red; }
]]></style>

<defs>
  <circle id="rim" cx="0" cy="0" r="7"/>
  <circle id="rim2" cx="0" cy="0" r="3.5"/>
  <g id="zoomPlus">
    <use xlink:href="#rim" fill="#404040"><set attributeName="fill" to="#808080" begin="zoomplus.mouseover" end="zoomplus.mouseout"/></use>
    <path d="M-4,0h8M0,-4v8" fill="none" stroke="white" stroke-width="1.5" pointer-events="none"/>
  </g>
  <g id="zoomMin">
    <use xlink:href="#rim" fill="#404040"><set attributeName="fill" to="#808080" begin="zoomminus.mouseover" end="zoomminus.mouseout"/></use>
    <path d="M-4,0h8" fill="none" stroke="white" stroke-width="1.5" pointer-events="none"/>
  </g>
  <g id="arrowUp" transform="translate(30 24)">
    <use xlink:href="#rim"/>
    <path pointer-events="none" fill="none" stroke="white" stroke-width="1.5" d="M0,-3.0v7 M-2.5,-0.5L0,-3.0L2.5,-0.5"/>
  </g>
  <g id="arrowRight" transform="rotate(90) translate(36 -43)">
    <use xlink:href="#rim"/>
    <path pointer-events="none" fill="none" stroke="white" stroke-width="1.5" d="M0,-3.0v7 M-2.5,-0.5L0,-3.0L2.5,-0.5"/>
  </g>
  <g id="arrowDown" transform="rotate(180) translate(-30 -48)">
    <use xlink:href="#rim"/>
    <path pointer-events="none" fill="none" stroke="white" stroke-width="1.5" d="M0,-3.0v7 M-2.5,-0.5L0,-3.0L2.5,-0.5"/>
  </g>
  <g id="arrowLeft" transform="rotate(270) translate(-36 17)">
    <use xlink:href="#rim"/>
    <path pointer-events="none" fill="none" stroke="white" stroke-width="1.5" d="M0,-3.0v7 M-2.5,-0.5L0,-3.0L2.5,-0.5"/>
  </g>
  <g id="resetDef">
    <use xlink:href="#rim2" fill="#404040"><set attributeName="fill" to="#808080" begin="reset.mouseover" end="reset.mouseout"/></use>
  </g>
</defs>
<script type="application/ecmascript">
var viewWidth = 638;
var viewHeight = 226;
var sectionId = 'dynsection-15';
</script>
<script type="application/ecmascript" xlink:href="svg.min.js"/>
<svg id="graph" class="graph">
<g id="viewport">
<title>App::Services::Students::StudentAcademicProgressService::loadStudentContext</title>
<!-- Node1 -->
<g id="Node000001" class="node">
<title>Node1</title>
<g id="a_Node000001"><a xlink:title=" ">
<polygon fill="#999999" stroke="#666666" points="630,-100 444,-100 444,-59 630,-59 630,-100"/>
<text text-anchor="start" x="452" y="-88" font-family="Helvetica,sans-Serif" font-size="10.00">App::Services::Students</text>
<text text-anchor="start" x="452" y="-77" font-family="Helvetica,sans-Serif" font-size="10.00">::StudentAcademicProgressService</text>
<text text-anchor="middle" x="537" y="-66" font-family="Helvetica,sans-Serif" font-size="10.00">::loadStudentContext</text>
</a>
</g>
</g>
<!-- Node2 -->
<g id="Node000002" class="node">
<title>Node2</title>
<g id="a_Node000002"><a xlink:href="classApp_1_1Services_1_1Students_1_1StudentAcademicProgressService.html#a342aecffaca0198db506453dd0d79774" target="_top" xlink:title=" ">
<polygon fill="white" stroke="#666666" points="408,-100 222,-100 222,-59 408,-59 408,-100"/>
<text text-anchor="start" x="230" y="-88" font-family="Helvetica,sans-Serif" font-size="10.00">App::Services::Students</text>
<text text-anchor="start" x="230" y="-77" font-family="Helvetica,sans-Serif" font-size="10.00">::StudentAcademicProgressService</text>
<text text-anchor="middle" x="315" y="-66" font-family="Helvetica,sans-Serif" font-size="10.00">::describe</text>
</a>
</g>
</g>
<!-- Node1&#45;&gt;Node2 -->
<g id="edge1_Node000001_Node000002" class="edge">
<title>Node1&#45;&gt;Node2</title>
<g id="a_edge1_Node000001_Node000002"><a xlink:title=" ">
<path fill="none" stroke="#63b8ff" d="M433.89,-79.5C425.25,-79.5 416.56,-79.5 408.01,-79.5"/>
<polygon fill="#63b8ff" stroke="#63b8ff" points="433.97,-83 443.97,-79.5 433.97,-76 433.97,-83"/>
</a>
</g>
</g>
<!-- Node7 -->
<g id="Node000007" class="node">
<title>Node7</title>
<g id="a_Node000007"><a xlink:href="classApp_1_1Services_1_1Students_1_1StudentAcademicProgressService.html#aeb732c9b05ef4cc560b5aa5fc328ebfe" target="_top" xlink:title=" ">
<polygon fill="white" stroke="#666666" points="408,-41 222,-41 222,0 408,0 408,-41"/>
<text text-anchor="start" x="230" y="-29" font-family="Helvetica,sans-Serif" font-size="10.00">App::Services::Students</text>
<text text-anchor="start" x="230" y="-18" font-family="Helvetica,sans-Serif" font-size="10.00">::StudentAcademicProgressService</text>
<text text-anchor="middle" x="315" y="-7" font-family="Helvetica,sans-Serif" font-size="10.00">::describeForPeriod</text>
</a>
</g>
</g>
<!-- Node1&#45;&gt;Node7 -->
<g id="edge6_Node000001_Node000007" class="edge">
<title>Node1&#45;&gt;Node7</title>
<g id="a_edge6_Node000001_Node000007"><a xlink:title=" ">
<path fill="none" stroke="#63b8ff" d="M449.64,-56.34C430.86,-51.3 411.11,-46.01 392.73,-41.08"/>
<polygon fill="#63b8ff" stroke="#63b8ff" points="448.8,-59.74 459.36,-58.95 450.61,-52.98 448.8,-59.74"/>
</a>
</g>
</g>
<!-- Node8 -->
<g id="Node000008" class="node">
<title>Node8</title>
<g id="a_Node000008"><a xlink:href="classApp_1_1Services_1_1Students_1_1StudentAcademicProgressService.html#a05802f22d14a0a627d4185203760a502" target="_top" xlink:title=" ">
<polygon fill="white" stroke="#666666" points="408,-159 222,-159 222,-118 408,-118 408,-159"/>
<text text-anchor="start" x="230" y="-147" font-family="Helvetica,sans-Serif" font-size="10.00">App::Services::Students</text>
<text text-anchor="start" x="230" y="-136" font-family="Helvetica,sans-Serif" font-size="10.00">::StudentAcademicProgressService</text>
<text text-anchor="middle" x="315" y="-125" font-family="Helvetica,sans-Serif" font-size="10.00">::syncStudent</text>
</a>
</g>
</g>
<!-- Node1&#45;&gt;Node8 -->
<g id="edge7_Node000001_Node000008" class="edge">
<title>Node1&#45;&gt;Node8</title>
<g id="a_edge7_Node000001_Node000008"><a xlink:title=" ">
<path fill="none" stroke="#63b8ff" d="M449.64,-102.66C430.86,-107.7 411.11,-112.99 392.73,-117.92"/>
<polygon fill="#63b8ff" stroke="#63b8ff" points="450.61,-106.02 459.36,-100.05 448.8,-99.26 450.61,-106.02"/>
</a>
</g>
</g>
<!-- Node3 -->
<g id="Node000003" class="node">
<title>Node3</title>
<g id="a_Node000003"><a xlink:href="classApp_1_1Services_1_1Students_1_1StudentAcademicProgressService.html#a55a9ac21791b1808b8e6dcd6df8a8d40" target="_top" xlink:title=" ">
<polygon fill="white" stroke="#666666" points="186,-100 0,-100 0,-59 186,-59 186,-100"/>
<text text-anchor="start" x="8" y="-88" font-family="Helvetica,sans-Serif" font-size="10.00">App::Services::Students</text>
<text text-anchor="start" x="8" y="-77" font-family="Helvetica,sans-Serif" font-size="10.00">::StudentAcademicProgressService</text>
<text text-anchor="middle" x="93" y="-66" font-family="Helvetica,sans-Serif" font-size="10.00">::blockedIdeaBankMessage</text>
</a>
</g>
</g>
<!-- Node2&#45;&gt;Node3 -->
<g id="edge2_Node000002_Node000003" class="edge">
<title>Node2&#45;&gt;Node3</title>
<g id="a_edge2_Node000002_Node000003"><a xlink:title=" ">
<path fill="none" stroke="#63b8ff" d="M211.89,-79.5C203.25,-79.5 194.56,-79.5 186.01,-79.5"/>
<polygon fill="#63b8ff" stroke="#63b8ff" points="211.97,-83 221.97,-79.5 211.97,-76 211.97,-83"/>
</a>
</g>
</g>
<!-- Node4 -->
<g id="Node000004" class="node">
<title>Node4</title>
<g id="a_Node000004"><a xlink:href="classApp_1_1Services_1_1Students_1_1StudentAcademicProgressService.html#a775c34b5077ad05fdc69cbcd34616b19" target="_top" xlink:title=" ">
<polygon fill="white" stroke="#666666" points="186,-41 0,-41 0,0 186,0 186,-41"/>
<text text-anchor="start" x="8" y="-29" font-family="Helvetica,sans-Serif" font-size="10.00">App::Services::Students</text>
<text text-anchor="start" x="8" y="-18" font-family="Helvetica,sans-Serif" font-size="10.00">::StudentAcademicProgressService</text>
<text text-anchor="middle" x="93" y="-7" font-family="Helvetica,sans-Serif" font-size="10.00">::blockedProposalMessage</text>
</a>
</g>
</g>
<!-- Node2&#45;&gt;Node4 -->
<g id="edge3_Node000002_Node000004" class="edge">
<title>Node2&#45;&gt;Node4</title>
<g id="a_edge3_Node000002_Node000004"><a xlink:title=" ">
<path fill="none" stroke="#63b8ff" d="M227.64,-56.34C208.86,-51.3 189.11,-46.01 170.73,-41.08"/>
<polygon fill="#63b8ff" stroke="#63b8ff" points="226.8,-59.74 237.36,-58.95 228.61,-52.98 226.8,-59.74"/>
</a>
</g>
</g>
<!-- Node5 -->
<g id="Node000005" class="node">
<title>Node5</title>
<g id="a_Node000005"><a xlink:href="classApp_1_1Services_1_1Students_1_1StudentAcademicProgressService.html#ad4a9a187a3af7eab46510377ddcd8fd9" target="_top" xlink:title=" ">
<polygon fill="white" stroke="#666666" points="186,-218 0,-218 0,-177 186,-177 186,-218"/>
<text text-anchor="start" x="8" y="-206" font-family="Helvetica,sans-Serif" font-size="10.00">App::Services::Students</text>
<text text-anchor="start" x="8" y="-195" font-family="Helvetica,sans-Serif" font-size="10.00">::StudentAcademicProgressService</text>
<text text-anchor="middle" x="93" y="-184" font-family="Helvetica,sans-Serif" font-size="10.00">::canAccessIdeaBank</text>
</a>
</g>
</g>
<!-- Node2&#45;&gt;Node5 -->
<g id="edge4_Node000002_Node000005" class="edge">
<title>Node2&#45;&gt;Node5</title>
<g id="a_edge4_Node000002_Node000005"><a xlink:title=" ">
<path fill="none" stroke="#63b8ff" d="M227.66,-105.38C225.71,-106.69 223.82,-108.06 222,-109.5 197.9,-128.55 210.19,-149.57 186,-168.5 182.04,-171.6 177.75,-174.37 173.26,-176.84"/>
<polygon fill="#63b8ff" stroke="#63b8ff" points="229.77,-108.2 236.55,-100.06 226.17,-102.2 229.77,-108.2"/>
</a>
</g>
</g>
<!-- Node6 -->
<g id="Node000006" class="node">
<title>Node6</title>
<g id="a_Node000006"><a xlink:href="classApp_1_1Services_1_1Students_1_1StudentAcademicProgressService.html#a8b9cff259063e54d6862375d6fd898bc" target="_top" xlink:title=" ">
<polygon fill="white" stroke="#666666" points="186,-159 0,-159 0,-118 186,-118 186,-159"/>
<text text-anchor="start" x="8" y="-147" font-family="Helvetica,sans-Serif" font-size="10.00">App::Services::Students</text>
<text text-anchor="start" x="8" y="-136" font-family="Helvetica,sans-Serif" font-size="10.00">::StudentAcademicProgressService</text>
<text text-anchor="middle" x="93" y="-125" font-family="Helvetica,sans-Serif" font-size="10.00">::canCreateProposal</text>
</a>
</g>
</g>
<!-- Node2&#45;&gt;Node6 -->
<g id="edge5_Node000002_Node000006" class="edge">
<title>Node2&#45;&gt;Node6</title>
<g id="a_edge5_Node000002_Node000006"><a xlink:title=" ">
<path fill="none" stroke="#63b8ff" d="M227.64,-102.66C208.86,-107.7 189.11,-112.99 170.73,-117.92"/>
<polygon fill="#63b8ff" stroke="#63b8ff" points="228.61,-106.02 237.36,-100.05 226.8,-99.26 228.61,-106.02"/>
</a>
</g>
</g>
<!-- Node8&#45;&gt;Node3 -->
<g id="edge8_Node000008_Node000003" class="edge">
<title>Node8&#45;&gt;Node3</title>
<g id="a_edge8_Node000008_Node000003"><a xlink:title=" ">
<path fill="none" stroke="#63b8ff" d="M227.64,-115.34C208.86,-110.3 189.11,-105.01 170.73,-100.08"/>
<polygon fill="#63b8ff" stroke="#63b8ff" points="226.8,-118.74 237.36,-117.95 228.61,-111.98 226.8,-118.74"/>
</a>
</g>
</g>
<!-- Node8&#45;&gt;Node4 -->
<g id="edge9_Node000008_Node000004" class="edge">
<title>Node8&#45;&gt;Node4</title>
<g id="a_edge9_Node000008_Node000004"><a xlink:title=" ">
<path fill="none" stroke="#63b8ff" d="M226.19,-112.58C224.76,-111.59 223.36,-110.56 222,-109.5 197.81,-90.57 210.1,-69.55 186,-50.5 181.52,-46.96 176.61,-43.83 171.45,-41.06"/>
<polygon fill="#63b8ff" stroke="#63b8ff" points="224.39,-115.58 234.74,-117.84 228.06,-109.62 224.39,-115.58"/>
</a>
</g>
</g>
<!-- Node8&#45;&gt;Node5 -->
<g id="edge10_Node000008_Node000005" class="edge">
<title>Node8&#45;&gt;Node5</title>
<g id="a_edge10_Node000008_Node000005"><a xlink:title=" ">
<path fill="none" stroke="#63b8ff" d="M227.64,-161.66C208.86,-166.7 189.11,-171.99 170.73,-176.92"/>
<polygon fill="#63b8ff" stroke="#63b8ff" points="228.61,-165.02 237.36,-159.05 226.8,-158.26 228.61,-165.02"/>
</a>
</g>
</g>
<!-- Node8&#45;&gt;Node6 -->
<g id="edge11_Node000008_Node000006" class="edge">
<title>Node8&#45;&gt;Node6</title>
<g id="a_edge11_Node000008_Node000006"><a xlink:title=" ">
<path fill="none" stroke="#63b8ff" d="M211.89,-138.5C203.25,-138.5 194.56,-138.5 186.01,-138.5"/>
<polygon fill="#63b8ff" stroke="#63b8ff" points="211.97,-142 221.97,-138.5 211.97,-135 211.97,-142"/>
</a>
</g>
</g>
</g>
</svg>

<g id="navigator" transform="translate(0 0)" fill="#404254">
  <rect fill="#f2f5e9" fill-opacity="0.5" stroke="#606060" stroke-width=".5" x="0" y="0" width="60" height="60"/>
  <use id="zoomplus" xlink:href="#zoomPlus" x="17" y="9" onmousedown="handleZoom(evt,'in')"/>
  <use id="zoomminus" xlink:href="#zoomMin" x="42" y="9" onmousedown="handleZoom(evt,'out')"/>
  <use id="reset" xlink:href="#resetDef" x="30" y="36" onmousedown="handleReset()"/>
   <use id="arrowup" xlink:href="#arrowUp" x="0" y="0" onmousedown="handlePan(0,-1)"/>
  <use id="arrowright" xlink:href="#arrowRight" x="0" y="0" onmousedown="handlePan(1,0)"/>
  <use id="arrowdown" xlink:href="#arrowDown" x="0" y="0" onmousedown="handlePan(0,1)"/>
  <use id="arrowleft" xlink:href="#arrowLeft" x="0" y="0" onmousedown="handlePan(-1,0)"/>
</g>
<svg viewBox="0 0 15 15" width="100%" height="30px" preserveAspectRatio="xMaxYMin meet">
 <g id="arrow_out" transform="scale(0.3 0.3)">
  <a xlink:href="classApp_1_1Services_1_1Students_1_1StudentAcademicProgressService_a27b45962b08966caa8bba8324488d26d_icgraph_org.svg" target="_base">
   <rect id="button" ry="5" rx="5" y="6" x="6" height="38" width="38"
        fill="#f2f5e9" fill-opacity="0.5" stroke="#606060" stroke-width="1.0"/>
   <path id="arrow"
     d="M 11.500037,31.436501 C 11.940474,20.09759 22.043105,11.32322 32.158766,21.979434 L 37.068811,17.246167 C 37.068811,17.246167 37.088388,32 37.088388,32 L 22.160133,31.978069 C 22.160133,31.978069 26.997745,27.140456 26.997745,27.140456 C 18.528582,18.264221 13.291696,25.230495 11.500037,31.436501 z"
     style="fill:#404040;"/>
  </a>
 </g>
</svg>

<style type='text/css'>
<![CDATA[
[data-mouse-over-selected='false'] { opacity: 0.7; }
[data-mouse-over-selected='true']  { opacity: 1.0; }
]]>
</style>
<script type="application/ecmascript"><![CDATA[
document.addEventListener('DOMContentLoaded', (event) => {
  highlightEdges();
  highlightAdjacentNodes();
});
]]></script>
</svg>
