<?xml version="1.0" encoding="UTF-8" standalone="no"?>
<!DOCTYPE svg PUBLIC "-//W3C//DTD SVG 1.1//EN"
 "http://www.w3.org/Graphics/SVG/1.1/DTD/svg11.dtd">
<!-- Generated by graphviz version 2.43.0 (0)
 -->
<!-- Title: App::Http::Controllers::AcademicProcessWindowController Pages: 1 -->
<svg width="252pt" height="471pt"
 viewBox="0.00 0.00 252.00 471.00" xmlns="http://www.w3.org/2000/svg" xmlns:xlink="http://www.w3.org/1999/xlink">
<g id="graph0" class="graph" transform="scale(1 1) rotate(0) translate(4 467)">
<title>App::Http::Controllers::AcademicProcessWindowController</title>
<!-- Node1 -->
<g id="Node000001" class="node">
<title>Node1</title>
<g id="a_Node000001"><a xlink:title=" ">
<polygon fill="#999999" stroke="transparent" points="244,-249 0,-249 0,0 244,0 244,-249"/>
<text text-anchor="start" x="32.5" y="-236.5" font-family="Helvetica,sans-Serif" font-size="10.00">App::Http::Controllers</text>
<text text-anchor="start" x="32.5" y="-225.5" font-family="Helvetica,sans-Serif" font-size="10.00">::AcademicProcessWindowController</text>
<text text-anchor="start" x="120" y="-210.5" font-family="Helvetica,sans-Serif" font-size="10.00"> </text>
<text text-anchor="start" x="4" y="-195.5" font-family="Helvetica,sans-Serif" font-size="10.00">+</text>
<text text-anchor="start" x="17" y="-195.5" font-family="Helvetica,sans-Serif" font-size="10.00">create(Request $request)</text>
<text text-anchor="start" x="4" y="-180.5" font-family="Helvetica,sans-Serif" font-size="10.00">+</text>
<text text-anchor="start" x="17" y="-180.5" font-family="Helvetica,sans-Serif" font-size="10.00">destroy(ResearchStaffAcademic</text>
<text text-anchor="start" x="17" y="-169.5" font-family="Helvetica,sans-Serif" font-size="10.00">ProcessWindow $academic_process</text>
<text text-anchor="start" x="17" y="-158.5" font-family="Helvetica,sans-Serif" font-size="10.00">_window)</text>
<text text-anchor="start" x="4" y="-143.5" font-family="Helvetica,sans-Serif" font-size="10.00">+</text>
<text text-anchor="start" x="17" y="-143.5" font-family="Helvetica,sans-Serif" font-size="10.00">edit(ResearchStaffAcademic</text>
<text text-anchor="start" x="17" y="-132.5" font-family="Helvetica,sans-Serif" font-size="10.00">ProcessWindow $academic</text>
<text text-anchor="start" x="17" y="-121.5" font-family="Helvetica,sans-Serif" font-size="10.00">_process_window)</text>
<text text-anchor="start" x="4" y="-106.5" font-family="Helvetica,sans-Serif" font-size="10.00">+</text>
<text text-anchor="start" x="17" y="-106.5" font-family="Helvetica,sans-Serif" font-size="10.00">index(Request $request)</text>
<text text-anchor="start" x="4" y="-91.5" font-family="Helvetica,sans-Serif" font-size="10.00">+</text>
<text text-anchor="start" x="17" y="-91.5" font-family="Helvetica,sans-Serif" font-size="10.00">show(ResearchStaffAcademic</text>
<text text-anchor="start" x="17" y="-80.5" font-family="Helvetica,sans-Serif" font-size="10.00">ProcessWindow $academic</text>
<text text-anchor="start" x="17" y="-69.5" font-family="Helvetica,sans-Serif" font-size="10.00">_process_window)</text>
<text text-anchor="start" x="4" y="-54.5" font-family="Helvetica,sans-Serif" font-size="10.00">+</text>
<text text-anchor="start" x="17" y="-54.5" font-family="Helvetica,sans-Serif" font-size="10.00">store(AcademicProcessWindow</text>
<text text-anchor="start" x="17" y="-43.5" font-family="Helvetica,sans-Serif" font-size="10.00">Request $request)</text>
<text text-anchor="start" x="4" y="-28.5" font-family="Helvetica,sans-Serif" font-size="10.00">+</text>
<text text-anchor="start" x="17" y="-28.5" font-family="Helvetica,sans-Serif" font-size="10.00">update(AcademicProcessWindow</text>
<text text-anchor="start" x="17" y="-17.5" font-family="Helvetica,sans-Serif" font-size="10.00">Request $request, ResearchStaffAcademic</text>
<text text-anchor="start" x="17" y="-6.5" font-family="Helvetica,sans-Serif" font-size="10.00">ProcessWindow $academic_process_window)</text>
<polygon fill="#666666" stroke="#666666" points="0,-220.5 0,-220.5 244,-220.5 244,-220.5 0,-220.5"/>
<polygon fill="#666666" stroke="#666666" points="0,-205.5 0,-205.5 244,-205.5 244,-205.5 0,-205.5"/>
<polygon fill="none" stroke="#666666" points="0,0 0,-249 244,-249 244,0 0,0"/>
</a>
</g>
</g>
<!-- Node2 -->
<g id="Node000002" class="node">
<title>Node2</title>
<g id="a_Node000002"><a xlink:href="classApp_1_1Http_1_1Controllers_1_1Controller.html" target="_top" xlink:title=" ">
<polygon fill="white" stroke="transparent" points="208.5,-378 35.5,-378 35.5,-285 208.5,-285 208.5,-378"/>
<text text-anchor="start" x="69.5" y="-365.5" font-family="Helvetica,sans-Serif" font-size="10.00">App::Http::Controllers</text>
<text text-anchor="start" x="95" y="-354.5" font-family="Helvetica,sans-Serif" font-size="10.00">::Controller</text>
<text text-anchor="start" x="120.5" y="-339.5" font-family="Helvetica,sans-Serif" font-size="10.00"> </text>
<text text-anchor="start" x="40" y="-324.5" font-family="Helvetica,sans-Serif" font-size="10.00">#</text>
<text text-anchor="start" x="53" y="-324.5" font-family="Helvetica,sans-Serif" font-size="10.00">academicProcessUnavailable</text>
<text text-anchor="start" x="53" y="-313.5" font-family="Helvetica,sans-Serif" font-size="10.00">View(string $processKey,</text>
<text text-anchor="start" x="53" y="-302.5" font-family="Helvetica,sans-Serif" font-size="10.00"> ?string $activityLabel=null,</text>
<text text-anchor="start" x="53" y="-291.5" font-family="Helvetica,sans-Serif" font-size="10.00"> string $redirectRoute=&#39;home&#39;)</text>
<polygon fill="#666666" stroke="#666666" points="36,-349.5 36,-349.5 209,-349.5 209,-349.5 36,-349.5"/>
<polygon fill="#666666" stroke="#666666" points="36,-334.5 36,-334.5 209,-334.5 209,-334.5 36,-334.5"/>
<polygon fill="none" stroke="#666666" points="35.5,-285 35.5,-378 208.5,-378 208.5,-285 35.5,-285"/>
</a>
</g>
</g>
<!-- Node2&#45;&gt;Node1 -->
<g id="edge1_Node000001_Node000002" class="edge">
<title>Node2&#45;&gt;Node1</title>
<g id="a_edge1_Node000001_Node000002"><a xlink:title=" ">
<path fill="none" stroke="#63b8ff" d="M122,-274.5C122,-266.48 122,-257.98 122,-249.26"/>
<polygon fill="none" stroke="#63b8ff" points="118.5,-274.75 122,-284.75 125.5,-274.75 118.5,-274.75"/>
</a>
</g>
</g>
<!-- Node3 -->
<g id="Node000003" class="node">
<title>Node3</title>
<g id="a_Node000003"><a xlink:href="classBaseController.html" target="_top" xlink:title=" ">
<polygon fill="white" stroke="transparent" points="163.5,-463 80.5,-463 80.5,-414 163.5,-414 163.5,-463"/>
<text text-anchor="start" x="86" y="-450.5" font-family="Helvetica,sans-Serif" font-size="10.00">BaseController</text>
<text text-anchor="start" x="120.5" y="-435.5" font-family="Helvetica,sans-Serif" font-size="10.00"> </text>
<text text-anchor="start" x="120.5" y="-420.5" font-family="Helvetica,sans-Serif" font-size="10.00"> </text>
<polygon fill="#666666" stroke="#666666" points="81,-445.5 81,-445.5 164,-445.5 164,-445.5 81,-445.5"/>
<polygon fill="#666666" stroke="#666666" points="81,-430.5 81,-430.5 164,-430.5 164,-430.5 81,-430.5"/>
<polygon fill="none" stroke="#666666" points="80.5,-414 80.5,-463 163.5,-463 163.5,-414 80.5,-414"/>
</a>
</g>
</g>
<!-- Node3&#45;&gt;Node2 -->
<g id="edge2_Node000002_Node000003" class="edge">
<title>Node3&#45;&gt;Node2</title>
<g id="a_edge2_Node000002_Node000003"><a xlink:title=" ">
<path fill="none" stroke="#63b8ff" d="M122,-403.77C122,-395.68 122,-386.9 122,-378.36"/>
<polygon fill="none" stroke="#63b8ff" points="118.5,-403.94 122,-413.94 125.5,-403.94 118.5,-403.94"/>
</a>
</g>
</g>
</g>
</svg>
