<?xml version="1.0" encoding="UTF-8" standalone="no"?>
<!DOCTYPE svg PUBLIC "-//W3C//DTD SVG 1.1//EN"
 "http://www.w3.org/Graphics/SVG/1.1/DTD/svg11.dtd">
<!-- Generated by graphviz version 2.43.0 (0)
 -->
<!-- Title: App::Http::Controllers::LoadProjectionController Pages: 1 -->
<svg width="264pt" height="741pt"
 viewBox="0.00 0.00 264.00 741.00" xmlns="http://www.w3.org/2000/svg" xmlns:xlink="http://www.w3.org/1999/xlink">
<g id="graph0" class="graph" transform="scale(1 1) rotate(0) translate(4 737)">
<title>App::Http::Controllers::LoadProjectionController</title>
<!-- Node1 -->
<g id="Node000001" class="node">
<title>Node1</title>
<g id="a_Node000001"><a xlink:title=" ">
<polygon fill="#999999" stroke="transparent" points="256,-519 0,-519 0,0 256,0 256,-519"/>
<text text-anchor="start" x="64.5" y="-506.5" font-family="Helvetica,sans-Serif" font-size="10.00">App::Http::Controllers</text>
<text text-anchor="start" x="64.5" y="-495.5" font-family="Helvetica,sans-Serif" font-size="10.00">::LoadProjectionController</text>
<text text-anchor="start" x="126" y="-480.5" font-family="Helvetica,sans-Serif" font-size="10.00"> </text>
<text text-anchor="start" x="4" y="-465.5" font-family="Helvetica,sans-Serif" font-size="10.00">+</text>
<text text-anchor="start" x="17" y="-465.5" font-family="Helvetica,sans-Serif" font-size="10.00">__construct(private</text>
<text text-anchor="start" x="17" y="-454.5" font-family="Helvetica,sans-Serif" font-size="10.00"> readonly ProjectionPeriodService</text>
<text text-anchor="start" x="17" y="-443.5" font-family="Helvetica,sans-Serif" font-size="10.00"> $periods, private readonly</text>
<text text-anchor="start" x="17" y="-432.5" font-family="Helvetica,sans-Serif" font-size="10.00"> LoadProjectionService $loadProjections,</text>
<text text-anchor="start" x="17" y="-421.5" font-family="Helvetica,sans-Serif" font-size="10.00"> private readonly VisualReportService $reports,)</text>
<text text-anchor="start" x="4" y="-406.5" font-family="Helvetica,sans-Serif" font-size="10.00">+</text>
<text text-anchor="start" x="17" y="-406.5" font-family="Helvetica,sans-Serif" font-size="10.00">create()</text>
<text text-anchor="start" x="4" y="-391.5" font-family="Helvetica,sans-Serif" font-size="10.00">+</text>
<text text-anchor="start" x="17" y="-391.5" font-family="Helvetica,sans-Serif" font-size="10.00">edit(ResearchStaffLoadProjection</text>
<text text-anchor="start" x="17" y="-380.5" font-family="Helvetica,sans-Serif" font-size="10.00"> $load_projection)</text>
<text text-anchor="start" x="4" y="-365.5" font-family="Helvetica,sans-Serif" font-size="10.00">+</text>
<text text-anchor="start" x="17" y="-365.5" font-family="Helvetica,sans-Serif" font-size="10.00">index(Request $request)</text>
<text text-anchor="start" x="4" y="-350.5" font-family="Helvetica,sans-Serif" font-size="10.00">+</text>
<text text-anchor="start" x="17" y="-350.5" font-family="Helvetica,sans-Serif" font-size="10.00">store(LoadProjectionRequest</text>
<text text-anchor="start" x="17" y="-339.5" font-family="Helvetica,sans-Serif" font-size="10.00"> $request)</text>
<text text-anchor="start" x="4" y="-324.5" font-family="Helvetica,sans-Serif" font-size="10.00">+</text>
<text text-anchor="start" x="17" y="-324.5" font-family="Helvetica,sans-Serif" font-size="10.00">update(LoadProjectionRequest</text>
<text text-anchor="start" x="17" y="-313.5" font-family="Helvetica,sans-Serif" font-size="10.00"> $request, ResearchStaffLoadProjection</text>
<text text-anchor="start" x="17" y="-302.5" font-family="Helvetica,sans-Serif" font-size="10.00"> $load_projection)</text>
<text text-anchor="start" x="4" y="-287.5" font-family="Helvetica,sans-Serif" font-size="10.00">#</text>
<text text-anchor="start" x="17" y="-287.5" font-family="Helvetica,sans-Serif" font-size="10.00">buildLoadHoursReportState</text>
<text text-anchor="start" x="17" y="-276.5" font-family="Helvetica,sans-Serif" font-size="10.00">(Collection $projections)</text>
<text text-anchor="start" x="4" y="-261.5" font-family="Helvetica,sans-Serif" font-size="10.00">#</text>
<text text-anchor="start" x="17" y="-261.5" font-family="Helvetica,sans-Serif" font-size="10.00">buildLoadProjectionReport</text>
<text text-anchor="start" x="17" y="-250.5" font-family="Helvetica,sans-Serif" font-size="10.00">State(Request $request,</text>
<text text-anchor="start" x="17" y="-239.5" font-family="Helvetica,sans-Serif" font-size="10.00"> Collection $projections,</text>
<text text-anchor="start" x="17" y="-228.5" font-family="Helvetica,sans-Serif" font-size="10.00"> Collection $periods, Collection</text>
<text text-anchor="start" x="17" y="-217.5" font-family="Helvetica,sans-Serif" font-size="10.00"> $programs, ?int $selectedPeriodId,</text>
<text text-anchor="start" x="17" y="-206.5" font-family="Helvetica,sans-Serif" font-size="10.00"> ?int $selectedProgramId)</text>
<text text-anchor="start" x="4" y="-191.5" font-family="Helvetica,sans-Serif" font-size="10.00">#</text>
<text text-anchor="start" x="17" y="-191.5" font-family="Helvetica,sans-Serif" font-size="10.00">buildLoadStageMixReport</text>
<text text-anchor="start" x="17" y="-180.5" font-family="Helvetica,sans-Serif" font-size="10.00">State(Collection $projections)</text>
<text text-anchor="start" x="4" y="-165.5" font-family="Helvetica,sans-Serif" font-size="10.00">#</text>
<text text-anchor="start" x="17" y="-165.5" font-family="Helvetica,sans-Serif" font-size="10.00">buildLoadStudentProjection</text>
<text text-anchor="start" x="17" y="-154.5" font-family="Helvetica,sans-Serif" font-size="10.00">ReportState(Collection </text>
<text text-anchor="start" x="17" y="-143.5" font-family="Helvetica,sans-Serif" font-size="10.00">$projections)</text>
<text text-anchor="start" x="4" y="-128.5" font-family="Helvetica,sans-Serif" font-size="10.00">#</text>
<text text-anchor="start" x="17" y="-128.5" font-family="Helvetica,sans-Serif" font-size="10.00">composeLoadProjectionReport</text>
<text text-anchor="start" x="17" y="-117.5" font-family="Helvetica,sans-Serif" font-size="10.00">State(string $reportKey,</text>
<text text-anchor="start" x="17" y="-106.5" font-family="Helvetica,sans-Serif" font-size="10.00"> Collection $projections)</text>
<text text-anchor="start" x="4" y="-91.5" font-family="Helvetica,sans-Serif" font-size="10.00">#</text>
<text text-anchor="start" x="17" y="-91.5" font-family="Helvetica,sans-Serif" font-size="10.00">loadProjectionReportFilters</text>
<text text-anchor="start" x="17" y="-80.5" font-family="Helvetica,sans-Serif" font-size="10.00">Summary(Collection $periods,</text>
<text text-anchor="start" x="17" y="-69.5" font-family="Helvetica,sans-Serif" font-size="10.00"> Collection $programs, ?int</text>
<text text-anchor="start" x="17" y="-58.5" font-family="Helvetica,sans-Serif" font-size="10.00"> $selectedPeriodId, ?int $selectedProgramId)</text>
<text text-anchor="start" x="4" y="-43.5" font-family="Helvetica,sans-Serif" font-size="10.00">#</text>
<text text-anchor="start" x="17" y="-43.5" font-family="Helvetica,sans-Serif" font-size="10.00">loadProjectionReportModules()</text>
<text text-anchor="start" x="4" y="-28.5" font-family="Helvetica,sans-Serif" font-size="10.00">#</text>
<text text-anchor="start" x="17" y="-28.5" font-family="Helvetica,sans-Serif" font-size="10.00">projectionCountsByProgram</text>
<text text-anchor="start" x="17" y="-17.5" font-family="Helvetica,sans-Serif" font-size="10.00">(Collection $projections,</text>
<text text-anchor="start" x="17" y="-6.5" font-family="Helvetica,sans-Serif" font-size="10.00"> string $field)</text>
<polygon fill="#666666" stroke="#666666" points="0,-490.5 0,-490.5 256,-490.5 256,-490.5 0,-490.5"/>
<polygon fill="#666666" stroke="#666666" points="0,-475.5 0,-475.5 256,-475.5 256,-475.5 0,-475.5"/>
<polygon fill="none" stroke="#666666" points="0,0 0,-519 256,-519 256,0 0,0"/>
</a>
</g>
</g>
<!-- Node2 -->
<g id="Node000002" class="node">
<title>Node2</title>
<g id="a_Node000002"><a xlink:href="classApp_1_1Http_1_1Controllers_1_1Controller.html" target="_top" xlink:title=" ">
<polygon fill="white" stroke="transparent" points="214.5,-648 41.5,-648 41.5,-555 214.5,-555 214.5,-648"/>
<text text-anchor="start" x="75.5" y="-635.5" font-family="Helvetica,sans-Serif" font-size="10.00">App::Http::Controllers</text>
<text text-anchor="start" x="101" y="-624.5" font-family="Helvetica,sans-Serif" font-size="10.00">::Controller</text>
<text text-anchor="start" x="126.5" y="-609.5" font-family="Helvetica,sans-Serif" font-size="10.00"> </text>
<text text-anchor="start" x="46" y="-594.5" font-family="Helvetica,sans-Serif" font-size="10.00">#</text>
<text text-anchor="start" x="59" y="-594.5" font-family="Helvetica,sans-Serif" font-size="10.00">academicProcessUnavailable</text>
<text text-anchor="start" x="59" y="-583.5" font-family="Helvetica,sans-Serif" font-size="10.00">View(string $processKey,</text>
<text text-anchor="start" x="59" y="-572.5" font-family="Helvetica,sans-Serif" font-size="10.00"> ?string $activityLabel=null,</text>
<text text-anchor="start" x="59" y="-561.5" font-family="Helvetica,sans-Serif" font-size="10.00"> string $redirectRoute=&#39;home&#39;)</text>
<polygon fill="#666666" stroke="#666666" points="42,-619.5 42,-619.5 215,-619.5 215,-619.5 42,-619.5"/>
<polygon fill="#666666" stroke="#666666" points="42,-604.5 42,-604.5 215,-604.5 215,-604.5 42,-604.5"/>
<polygon fill="none" stroke="#666666" points="41.5,-555 41.5,-648 214.5,-648 214.5,-555 41.5,-555"/>
</a>
</g>
</g>
<!-- Node2&#45;&gt;Node1 -->
<g id="edge1_Node000001_Node000002" class="edge">
<title>Node2&#45;&gt;Node1</title>
<g id="a_edge1_Node000001_Node000002"><a xlink:title=" ">
<path fill="none" stroke="#63b8ff" d="M128,-544.85C128,-536.84 128,-528.21 128,-519.1"/>
<polygon fill="none" stroke="#63b8ff" points="124.5,-545 128,-555 131.5,-545 124.5,-545"/>
</a>
</g>
</g>
<!-- Node3 -->
<g id="Node000003" class="node">
<title>Node3</title>
<g id="a_Node000003"><a xlink:href="classBaseController.html" target="_top" xlink:title=" ">
<polygon fill="white" stroke="transparent" points="169.5,-733 86.5,-733 86.5,-684 169.5,-684 169.5,-733"/>
<text text-anchor="start" x="92" y="-720.5" font-family="Helvetica,sans-Serif" font-size="10.00">BaseController</text>
<text text-anchor="start" x="126.5" y="-705.5" font-family="Helvetica,sans-Serif" font-size="10.00"> </text>
<text text-anchor="start" x="126.5" y="-690.5" font-family="Helvetica,sans-Serif" font-size="10.00"> </text>
<polygon fill="#666666" stroke="#666666" points="87,-715.5 87,-715.5 170,-715.5 170,-715.5 87,-715.5"/>
<polygon fill="#666666" stroke="#666666" points="87,-700.5 87,-700.5 170,-700.5 170,-700.5 87,-700.5"/>
<polygon fill="none" stroke="#666666" points="86.5,-684 86.5,-733 169.5,-733 169.5,-684 86.5,-684"/>
</a>
</g>
</g>
<!-- Node3&#45;&gt;Node2 -->
<g id="edge2_Node000002_Node000003" class="edge">
<title>Node3&#45;&gt;Node2</title>
<g id="a_edge2_Node000002_Node000003"><a xlink:title=" ">
<path fill="none" stroke="#63b8ff" d="M128,-673.77C128,-665.68 128,-656.9 128,-648.36"/>
<polygon fill="none" stroke="#63b8ff" points="124.5,-673.94 128,-683.94 131.5,-673.94 124.5,-673.94"/>
</a>
</g>
</g>
</g>
</svg>
